<svg width="31" height="20" viewBox="0 0 31 20" fill="none" xmlns="http://www.w3.org/2000/svg">
<path d="M30.4347 13.8316C30.3588 12.0869 30.0554 10.1526 29.6003 8.332C29.1452 6.58731 28.5762 4.9564 27.8935 3.70477C25.2386 -0.960385 22.356 -0.239751 18.9046 0.670524C17.8046 0.936021 16.6289 1.23945 15.4152 1.35323H15.0359C13.8222 1.23945 12.6464 0.936021 11.5465 0.670524C8.09505 -0.201822 5.21252 -0.960384 2.55755 3.7427C1.87484 4.99433 1.26799 6.62524 0.850785 8.36993C0.395648 10.1905 0.0922234 12.1248 0.0163672 13.8695C-0.059489 15.8038 0.130151 17.2072 0.547361 18.1933C0.96457 19.1036 1.57142 19.6725 2.36791 19.9001C3.08854 20.0897 3.92296 20.0139 4.79531 19.6346C6.2745 19.0277 7.98127 17.7382 9.65011 16.1831C10.8259 15.0453 13.0257 14.4764 15.2255 14.4764C17.4254 14.4764 19.6252 15.0453 20.801 16.1831C22.4698 17.7382 24.1766 19.0277 25.6558 19.6346C26.5281 19.9759 27.3625 20.0897 28.0832 19.9001C28.8417 19.6725 29.4865 19.1415 29.9037 18.1554C30.3209 17.2072 30.5106 15.8038 30.4347 13.8316ZM28.6142 17.6244C28.3866 18.1554 28.0832 18.4588 27.7039 18.5726C27.2867 18.6864 26.7557 18.6105 26.1488 18.3829C24.8213 17.852 23.2663 16.6762 21.7492 15.2349C20.3079 13.7936 17.7667 13.073 15.2255 13.073C12.6844 13.073 10.1432 13.7936 8.66397 15.1591C7.10892 16.6003 5.55387 17.814 4.26432 18.3071C3.65747 18.5347 3.12647 18.6484 2.70926 18.4967C2.32998 18.3829 2.02656 18.0795 1.79899 17.5485C1.49556 16.8279 1.34385 15.6521 1.41971 13.9074C1.49556 12.2765 1.76106 10.418 2.2162 8.67335C2.63341 7.04244 3.1644 5.52532 3.80918 4.38748C5.89522 0.632596 8.32262 1.23945 11.2052 1.99801C12.3809 2.30143 13.5946 2.60486 14.9221 2.71864C14.96 2.71864 14.96 2.71864 14.998 2.71864H15.4152C15.4531 2.71864 15.4531 2.71864 15.491 2.71864C16.8564 2.60486 18.0701 2.30143 19.2459 1.99801C22.1285 1.27737 24.5558 0.632596 26.6419 4.38748C27.2867 5.52532 27.8177 7.00452 28.2349 8.67335C28.6521 10.418 28.9555 12.2386 29.0314 13.9074C29.1072 15.6521 28.9555 16.8279 28.6142 17.6244Z" fill="#475464"/>
</svg>
