<svg width="26" height="24" viewBox="0 0 26 24" fill="none" xmlns="http://www.w3.org/2000/svg">
<path fill-rule="evenodd" clip-rule="evenodd" d="M14.2029 1.75935C15.3699 1.18814 16.3879 0.999998 17.9672 1.00002C22.0087 1.01675 25 4.42528 25 8.76714C25 12.0812 23.1522 15.2825 19.7104 18.3781C17.9038 20.0029 15.5971 21.6109 13.9452 22.4663L13 22.9558L12.0548 22.4663C10.4029 21.6109 8.09625 20.0029 6.28964 18.3781C2.84782 15.2825 1 12.0812 1 8.76714C1 4.37884 3.96339 1 8.04132 1C9.56394 1 10.6342 1.20594 11.8238 1.79433C12.238 1.99918 12.6271 2.24218 12.9891 2.52265C13.3655 2.22552 13.7708 1.97083 14.2029 1.75935Z" stroke="#475464" stroke-width="1.5"/>
</svg>
