<svg width="89" height="80" viewBox="0 0 89 80" fill="none" xmlns="http://www.w3.org/2000/svg">
<path fill-rule="evenodd" clip-rule="evenodd" d="M8.99857 8.96736C10.8908 7.3779 13.1236 6.58318 15.697 6.58318C18.1947 6.58318 20.3518 7.3779 22.1683 8.96736C23.3613 9.96942 24.1782 11.2573 24.619 12.8309C24.8774 13.7534 25.0067 14.774 25.0067 15.8928V64.9389C25.0067 66.0577 24.8774 67.0784 24.619 68.0008C24.1782 69.5744 23.3613 70.8623 22.1683 71.8643C20.3518 73.4538 18.1947 74.2485 15.697 74.2485C13.1236 74.2485 10.8908 73.4538 8.99857 71.8643C7.18205 70.2749 6.27379 67.9664 6.27379 64.9389V15.8928C6.27379 12.8653 7.18205 10.5568 8.99857 8.96736ZM25.8644 76.1731C22.9825 78.6774 19.4988 79.9252 15.697 79.9252C11.848 79.9252 8.30737 78.6973 5.34741 76.211L5.30357 76.1741L5.26049 76.1364C1.91032 73.205 0.597168 69.1545 0.597168 64.9389V15.8928C0.597168 11.6772 1.91032 7.62667 5.26049 4.69527L5.30357 4.65756L5.34742 4.62074C8.30737 2.13438 11.848 0.906555 15.697 0.906555C19.4988 0.906555 22.9824 2.15427 25.8644 4.65861C26.4679 5.16993 27.0082 5.71689 27.4889 6.29437C27.9467 5.73173 28.4605 5.1971 29.034 4.69527L29.0771 4.65756L29.1209 4.62074C32.0478 2.16218 35.5393 0.906555 39.357 0.906555H39.8111C42.2801 0.906555 44.7454 1.43098 46.9717 2.73848C49.1124 3.9957 50.7179 5.79309 51.8517 7.88442L58.3169 17.6684V15.8928C58.3169 11.6772 59.6301 7.62666 62.9802 4.69526L63.0233 4.65756L63.0672 4.62074C65.994 2.16218 69.4856 0.906555 73.3032 0.906555C77.1343 0.906555 80.6688 2.12557 83.5841 4.65858C87.0135 7.56419 88.403 11.6201 88.403 15.8928V64.9389C88.403 69.2116 87.0135 73.2675 83.5841 76.1731C80.6688 78.7061 77.1344 79.9252 73.3032 79.9252C71.6023 79.9252 69.8632 79.7289 68.2156 79.1797C66.9074 78.7437 65.6426 78.1589 64.4777 77.3823L64.3466 77.2949L64.2206 77.2004C63.3556 76.5516 62.516 75.8022 61.7897 74.9308C61.3795 74.4384 61.0091 73.978 60.7011 73.5673L60.612 73.4486L54.4568 64.2794V64.9389C54.4568 69.2116 53.0673 73.2674 49.6379 76.1731C46.7226 78.7061 43.1882 79.9252 39.357 79.9252C35.5393 79.9252 32.0478 78.6695 29.1209 76.211L29.0771 76.1741L29.034 76.1364C28.4605 75.6346 27.9467 75.1 27.4889 74.5373C27.0082 75.1148 26.4679 75.6617 25.8644 76.1731ZM30.4246 68.02C30.8491 69.5849 31.6315 70.8664 32.7721 71.8643C34.6643 73.4538 36.8593 74.2485 39.357 74.2485C41.9304 74.2485 44.1253 73.4538 45.9419 71.8643C47.8341 70.2749 48.7802 67.9664 48.7802 64.9389V45.6383L65.2424 70.1614C65.4695 70.4641 65.7722 70.8426 66.1506 71.2967C66.5291 71.7508 67.0211 72.2049 67.6266 72.6591C68.3078 73.1132 69.1025 73.4916 70.0107 73.7944C70.919 74.0972 72.0165 74.2485 73.3032 74.2485C75.8766 74.2485 78.0715 73.4538 79.8881 71.8643C81.7803 70.2749 82.7264 67.9664 82.7264 64.9389V15.8928C82.7264 12.8653 81.7803 10.5568 79.8881 8.96736C78.0715 7.3779 75.8766 6.58318 73.3032 6.58318C70.8055 6.58318 68.6105 7.3779 66.7183 8.96736C64.9018 10.5568 63.9935 12.8653 63.9935 15.8928V36.5558L46.9637 10.7839C45.5256 7.98341 43.1414 6.58318 39.8111 6.58318H39.357C36.8593 6.58318 34.6643 7.3779 32.7721 8.96736C31.6315 9.96534 30.8491 11.2468 30.4246 12.8117C30.1731 13.7392 30.0473 14.7662 30.0473 15.8928V64.9389C30.0473 66.0655 30.1731 67.0925 30.4246 68.02Z" fill="url(#paint0_linear_3524:42)"/>
<defs>
<linearGradient id="paint0_linear_3524:42" x1="44.5001" y1="0.906554" x2="80.0943" y2="79.9252" gradientUnits="userSpaceOnUse">
<stop stop-color="#893BDC"/>
<stop offset="0.494899" stop-color="#5D42CE"/>
<stop offset="1" stop-color="#31FAF4"/>
</linearGradient>
</defs>
</svg>
